PathFileType	4	(X/Y/Z)	D:\Share\Shared_Data\Ergonomics\Sit To Stand Pertubation\S2\Perturbed.trc
DataRate	CameraRate	NumFrames	NumMarkers	Units	OrigDataRate	OrigDataStartFrame	OrigNumFrames	
100	100	16	18	m	100	11526	261
Frame#	Time	R_Toe			R_ASIS			R_Pelvis			V_Sacral			L_Pelvis			L_ASIS			Clavical			R_Acromium			L_Acromium			Sternum			Torso			R_Thigh_Med			R_Thigh_Lat			R_Thigh			R_Shank_Med			R_Shank_Lat			R_Shank			R_Heel			
		X1	Y1	Z1	X2	Y2	Z2	X3	Y3	Z3	X4	Y4	Z4	X5	Y5	Z5	X6	Y6	Z6	X7	Y7	Z7	X8	Y8	Z8	X9	Y9	Z9	X10	Y10	Z10	X11	Y11	Z11	X12	Y12	Z12	X13	Y13	Z13	X14	Y14	Z14	X15	Y15	Z15	X16	Y16	Z16	X17	Y17	Z17	X18	Y18	Z18	

11526	115.25	0.43405621	0.074073189	0.14591362	0.062217861	0.67067761	0.12675226	-0.0050894547	0.707763	0.17038577	-0.1567952	0.6990304	0.017099333	-0.039125656	0.71940149	-0.16298772	0.054023018	0.69230884	-0.14274991	0.37039716	0.88846429	-0.011662039	0.32888092	0.98141608	0.19104478	0.32372226	0.99270831	-0.19337297	0.28462976	0.74788934	-0.0087553692	0.34381952	0.86285931	-0.11621128	0.39053415	0.49569815	0.1301082	0.35958521	0.50578995	0.23278305	0.22368523	0.64296143	0.1809267	0.30035309	0.11202232	0.1133334	0.2773147	0.097029846	0.2047626	0.3409729	0.35318353	0.24328018	0.19616689	0.058233864	0.15000394
11527	115.26	0.43396088	0.074153137	0.14588347	0.066756401	0.67482745	0.12697944	-0.00022657789	0.71226917	0.1707485	-0.15231386	0.70419104	0.017623005	-0.034758499	0.72396014	-0.16258501	0.058034576	0.69632715	-0.14264612	0.37333691	0.8947951	-0.011683012	0.33187103	0.98758142	0.19105836	0.32625137	0.99878613	-0.19341714	0.2885585	0.75390308	-0.0087589588	0.34668079	0.86912549	-0.116355	0.39371689	0.49480438	0.12870981	0.36334198	0.50540881	0.23147203	0.2288933	0.64415674	0.18020213	0.30034454	0.1119416	0.11328172	0.27745157	0.097041641	0.20483154	0.34344406	0.35299051	0.24243246	0.19612326	0.058183689	0.15000151
11528	115.27	0.43382559	0.074223297	0.14584921	0.071186646	0.67921985	0.12720155	0.0045499625	0.71704712	0.17111943	-0.14791806	0.70968573	0.018164074	-0.030530174	0.72878198	-0.16217316	0.061906269	0.70057166	-0.14254774	0.37622476	0.90167169	-0.011691202	0.33463425	0.99419604	0.19111984	0.3284942	1.0053612	-0.1934238	0.29235837	0.76039587	-0.0087048683	0.3494324	0.87587628	-0.11642678	0.39666415	0.49393976	0.12728143	0.36688406	0.50505661	0.23011243	0.23396408	0.64544824	0.17944373	0.30031232	0.11185236	0.11321418	0.27758719	0.097053055	0.20489778	0.34572379	0.3528331	0.24155452	0.19607829	0.05813113	0.14999841
11529	115.28	0.43365778	0.074293739	0.14580981	0.075494553	0.68384888	0.12740739	0.009225872	0.72208527	0.17149527	-0.14361917	0.7154928	0.018699898	-0.026452646	0.73385687	-0.16176709	0.065629013	0.70504089	-0.14246675	0.3790481	0.90906763	-0.011683448	0.33716611	1.0012374	0.19122627	0.33047336	1.0124149	-0.19339793	0.29602618	0.76735016	-0.0086006317	0.35211777	0.8830835	-0.11644363	0.39936993	0.4931113	0.12583856	0.37020157	0.5047323	0.22871776	0.23890488	0.64683142	0.1786821	0.300258	0.11175869	0.1131335	0.27771683	0.097061325	0.20496162	0.3478111	0.35271286	0.24065886	0.19603262	0.058074039	0.14999394
11530	115.29	0.4334726	0.07438176	0.14576143	0.079673866	0.6886991	0.12759126	0.013792803	0.72736554	0.17187366	-0.13942168	0.72159473	0.019226061	-0.022526152	0.7391806	-0.16137639	0.069199524	0.70973352	-0.14240935	0.38177667	0.91694849	-0.011660559	0.33946408	1.0086805	0.19137288	0.33220258	1.0199287	-0.19334424	0.29956201	0.77474536	-0.0084579535	0.35475995	0.8907251	-0.1164184	0.40182831	0.49232272	0.1243959	0.37328796	0.50443481	0.22730417	0.24372417	0.64829626	0.17794218	0.30018149	0.11166467	0.11304476	0.27783405	0.097064133	0.20502373	0.34970865	0.35262857	0.23975745	0.19598643	0.058010628	0.14998866
11531	115.3	0.43328644	0.074505661	0.14569804	0.083727158	0.69374518	0.12775256	0.018249725	0.73286401	0.17225352	-0.13532175	0.72797729	0.019751598	-0.018739893	0.74475043	-0.16100371	0.072621429	0.71464453	-0.1423763	0.38437463	0.92527625	-0.011626734	0.34153137	1.0164984	0.19155325	0.33368973	1.0278806	-0.19326495	0.30296918	0.78255817	-0.0082908916	0.35736026	0.89878418	-0.11635857	0.40403195	0.49157526	0.12296761	0.37613925	0.50416364	0.22588876	0.24842856	0.64983105	0.17724026	0.30008228	0.1115743	0.11295429	0.27793237	0.097059952	0.2050849	0.35142084	0.35257788	0.23886115	0.19593964	0.057939926	0.14998483
11532	115.31	0.43311017	0.074677124	0.14561382	0.087664207	0.69895178	0.12789314	0.022602896	0.73855127	0.17263559	-0.13130788	0.73462579	0.02028512	-0.015074871	0.75055908	-0.16064647	0.07590612	0.71976147	-0.14236588	0.38681198	0.93401306	-0.011588323	0.34337781	1.024662	0.19176016	0.33494067	1.0362438	-0.19316037	0.30625327	0.79076227	-0.0081148901	0.35990024	0.90724579	-0.11626887	0.40597348	0.49086902	0.12156786	0.37875339	0.50391858	0.22448798	0.2530213	0.65142511	0.17658417	0.29996045	0.11149038	0.11286743	0.27800723	0.09704834	0.2051459	0.3529538	0.35255893	0.23797986	0.1958922	0.057862637	0.14998604
11533	115.32	0.43294788	0.074898499	0.14550609	0.09149971	0.70427905	0.12801508	0.026863726	0.74439758	0.17302203	-0.12736386	0.74152399	0.020825882	-0.011507959	0.75659198	-0.1602999	0.079071556	0.72506384	-0.14237602	0.3890705	0.94312341	-0.011552502	0.34501797	1.0331412	0.19198669	0.33596332	1.044988	-0.19303073	0.30942059	0.79932922	-0.0079464483	0.36234753	0.91609467	-0.11615549	0.40764941	0.4902045	0.12021113	0.38113086	0.50369965	0.22311636	0.25750189	0.6530683	0.17597495	0.29981689	0.11141402	0.11278712	0.27805664	0.097029915	0.20520691	0.35431567	0.35256995	0.23712221	0.19584338	0.057782131	0.14999713
11534	115.33	0.43279849	0.07516581	0.14537752	0.095252365	0.70969452	0.12812018	0.031045324	0.75038165	0.17341463	-0.12347277	0.74865155	0.021364712	-0.0080157156	0.76282617	-0.15996129	0.082139687	0.73052655	-0.14240431	0.39114569	0.95257465	-0.011525602	0.34646805	1.0419061	0.19222725	0.33677023	1.0540831	-0.19287657	0.31247852	0.80822931	-0.0078019786	0.36466489	0.92531293	-0.11602881	0.40906589	0.48958405	0.11891161	0.38327454	0.50350647	0.22178555	0.26186646	0.65475104	0.17540935	0.29965234	0.11134499	0.1127142	0.27808032	0.097005867	0.20526772	0.35551718	0.35260953	0.2362962	0.19579077	0.057705109	0.15002428
11535	115.34	0.4326586	0.075473206	0.14523621	0.09894455	0.71517841	0.12821045	0.035159866	0.75649341	0.17381322	-0.11961953	0.75598334	0.021889452	-0.0045773315	0.76923279	-0.1596319	0.085134056	0.73612469	-0.14244629	0.3930433	0.96233765	-0.011511133	0.34774265	1.0509285	0.19247864	0.33738058	1.0635005	-0.19269823	0.31543665	0.81743311	-0.0076952496	0.36681802	0.93488037	-0.11590293	0.41024405	0.48901303	0.11768178	0.38519028	0.50333829	0.22050443	0.26611008	0.65646417	0.1748831	0.29946704	0.11128239	0.11264812	0.27807822	0.096977501	0.20532823	0.35657031	0.35267703	0.23551057	0.19573035	0.057639812	0.15007356
11536	115.35	0.43252383	0.075814926	0.14509285	0.10260075	0.72072357	0.12829007	0.039217228	0.76272955	0.17421675	-0.11579237	0.76348834	0.022390442	-0.0011764196	0.77578015	-0.15931671	0.088078659	0.74183496	-0.14249132	0.3947739	0.9723866	-0.011507957	0.34885187	1.0601835	0.19274036	0.33782007	1.0732162	-0.19249663	0.31830563	0.82691229	-0.0076348114	0.36878287	0.94477283	-0.1157927	0.41122522	0.48850079	0.11653275	0.38688675	0.50319482	0.21928059	0.27022992	0.65819891	0.17439391	0.29926129	0.1112253	0.11258792	0.27805057	0.096945862	0.20538867	0.35748624	0.35277295	0.23477501	0.19565833	0.057591457	0.15014674
11537	115.36	0.43239111	0.076185295	0.14495627	0.10624467	0.72633405	0.12836862	0.04322427	0.76908691	0.17462553	-0.11198313	0.77113037	0.022864511	0.0021981773	0.78243652	-0.15902245	0.090998177	0.74763739	-0.14251736	0.39634866	0.98269861	-0.011509215	0.3497998	1.069649	0.19301434	0.33811646	1.0832074	-0.19227408	0.32109409	0.83664069	-0.0076223207	0.37054984	0.95496082	-0.11571065	0.41206586	0.48805914	0.11547495	0.38837531	0.50307721	0.21812149	0.2742265	0.65994727	0.1739422	0.2990369	0.11117368	0.11253279	0.27799802	0.096911621	0.20544928	0.35827332	0.35289795	0.23409808	0.19557391	0.057558456	0.15023856
11538	115.37	0.43225995	0.07657814	0.14483167	0.10989466	0.73202856	0.12846217	0.047184952	0.77555939	0.17503975	-0.10818732	0.77887091	0.023313536	0.0055518517	0.78917377	-0.15875528	0.093918991	0.75351654	-0.14248865	0.39777652	0.99325446	-0.011501934	0.3505856	1.0793069	0.19330446	0.33829233	1.0934475	-0.192033	0.32380661	0.84659601	-0.00765167	0.37212445	0.96540961	-0.11566602	0.41280869	0.48769376	0.11451643	0.38966962	0.50298798	0.21703497	0.27810364	0.66170154	0.17353099	0.29879828	0.11112872	0.11248285	0.27792307	0.096875313	0.20551041	0.35893491	0.35305136	0.23348395	0.19548064	0.05753371	0.15033885
11539	115.38	0.43213303	0.076986504	0.14472104	0.11355779	0.73784351	0.12859087	0.051100742	0.78213635	0.17545549	-0.10440363	0.78667273	0.023738617	0.0088840857	0.79596796	-0.15852048	0.096869942	0.75946143	-0.14235674	0.39906305	1.0040389	-0.011468041	0.35120541	1.0891399	0.19361525	0.33835965	1.1039054	-0.19177504	0.32644519	0.85675861	-0.007709456	0.3735249	0.97608362	-0.1156636	0.4134632	0.48739948	0.11366145	0.39078415	0.50293045	0.21602892	0.28186899	0.66345496	0.17316638	0.29855243	0.11109283	0.11243929	0.27783044	0.096837463	0.2055728	0.35946863	0.35323004	0.23293173	0.19538457	0.057509377	0.15043745
11540	115.39	0.43201505	0.077402893	0.14462415	0.11722803	0.74382739	0.12877374	0.054971165	0.78880414	0.17586501	-0.10063286	0.79450269	0.024137115	0.012190314	0.80279871	-0.15832242	0.099883713	0.76546448	-0.14206203	0.40021021	1.0150386	-0.011388849	0.35165503	1.0991337	0.19395123	0.33831885	1.1145453	-0.19150098	0.32901077	0.86711139	-0.0077773519	0.37477512	0.98695026	-0.11570142	0.41402429	0.48716696	0.11291199	0.39173221	0.50290735	0.21510912	0.28553247	0.6652016	0.17285551	0.2983071	0.11106877	0.1124046	0.27772672	0.096798805	0.20563811	0.35986948	0.35342841	0.23243973	0.19529134	0.057480389	0.15052745
11541	115.4	0.43191107	0.077819695	0.14453925	0.12089209	0.75002594	0.12902376	0.058794804	0.79554816	0.17626198	-0.096876945	0.80233289	0.024503899	0.015465729	0.80964948	-0.15816187	0.10299738	0.77152454	-0.14153636	0.40121732	1.0262369	-0.011251383	0.35193185	1.1092742	0.19431694	0.33816119	1.1253284	-0.19121112	0.331505	0.87763739	-0.0078361893	0.37589691	0.99798035	-0.11577045	0.41449036	0.48698904	0.11226897	0.39252496	0.50292032	0.21427783	0.28910287	0.6669361	0.17260335	0.29806946	0.11105894	0.11238235	0.27761887	0.096760239	0.20570883	0.36013504	0.35364072	0.23200874	0.19520464	0.057445	0.15060559
